<svg width="28" height="21" viewBox="0 0 28 21" fill="none" xmlns="http://www.w3.org/2000/svg">
<path fill-rule="evenodd" clip-rule="evenodd" d="M20.3 16.8C21.4598 16.8 22.4 17.7402 22.4 18.9C22.4 20.0598 21.4598 21 20.3 21H7.7C6.5402 21 5.6 20.0598 5.6 18.9C5.6 17.7402 6.5402 16.8 7.7 16.8H20.3ZM25.9 8.4C27.0598 8.4 28 9.3402 28 10.5C28 11.6598 27.0598 12.6 25.9 12.6H2.1C0.940202 12.6 0 11.6598 0 10.5C0 9.3402 0.940202 8.4 2.1 8.4H25.9ZM23.1 0C24.2598 0 25.2 0.940202 25.2 2.1C25.2 3.2598 24.2598 4.2 23.1 4.2H4.9C3.7402 4.2 2.79999 3.2598 2.79999 2.1C2.79999 0.940202 3.7402 0 4.9 0H23.1Z" fill="#333333"/>
</svg>
