<svg width="22" height="26" viewBox="0 0 22 26" fill="none" xmlns="http://www.w3.org/2000/svg">
<path fill-rule="evenodd" clip-rule="evenodd" d="M11 3.33333C15.9957 3.33333 20.0455 7.51201 20.0455 12.6667L20.0451 19.3329L20.7078 19.3333C21.4215 19.3333 22 19.9303 22 20.6667C22 21.403 21.4215 22 20.7078 22H14.8767C14.8767 24.2091 13.141 26 11 26C8.85898 26 7.12335 24.2091 7.12335 22H1.29222C0.578545 22 0 21.403 0 20.6667C0 19.9303 0.578545 19.3333 1.29222 19.3333L1.95423 19.3329L1.95448 12.6667C1.95448 7.51201 6.0043 3.33333 11 3.33333ZM12.2922 22H9.70778C9.70778 22.7364 10.2863 23.3333 11 23.3333C11.7137 23.3333 12.2922 22.7364 12.2922 22ZM12.2922 0C13.0059 0 13.5844 0.596954 13.5844 1.33333C13.5844 2.06971 13.0059 2.66667 12.2922 2.66667H9.70778C8.99411 2.66667 8.41557 2.06971 8.41557 1.33333C8.41557 0.596954 8.99411 0 9.70778 0H12.2922Z" fill="#333333"/>
</svg>
