<svg width="32" height="32" viewBox="0 0 32 32" fill="none" xmlns="http://www.w3.org/2000/svg">
<path fill-rule="evenodd" clip-rule="evenodd" d="M12.5215 20.6176C14.4671 20.6176 16.1112 22.2623 16.1112 24.2088C16.1112 26.1552 14.4671 27.8 12.5215 27.8C10.5759 27.8 8.93177 26.1552 8.93177 24.2088C8.93177 22.2623 10.5759 20.6176 12.5215 20.6176ZM22.2651 20.6176C24.2107 20.6176 25.8548 22.2623 25.8548 24.2088C25.8548 26.1552 24.2107 27.8 22.2651 27.8C20.3194 27.8 18.6753 26.1552 18.6753 24.2088C18.6753 22.2623 20.3194 20.6176 22.2651 20.6176ZM12.5215 22.6697C11.702 22.6697 10.983 23.389 10.983 24.2088C10.983 25.0286 11.702 25.7479 12.5215 25.7479C13.341 25.7479 14.06 25.0286 14.06 24.2088C14.06 23.389 13.3405 22.6697 12.5215 22.6697ZM22.265 22.6697C21.4456 22.6697 20.7266 23.389 20.7266 24.2088C20.7266 25.0286 21.4456 25.7479 22.265 25.7479C23.0845 25.7479 23.8035 25.0286 23.8035 24.2088C23.8035 23.389 23.084 22.6697 22.265 22.6697ZM5.46152 4.20001C6.48511 4.20001 7.35895 4.96546 7.49485 5.98075C7.49638 5.99222 7.49771 6.00368 7.49885 6.01511L7.63197 7.01419L28.2184 5.21222C28.7221 5.16612 29.1698 5.49369 29.2971 5.96401C29.3267 6.07206 29.3389 6.1865 29.3309 6.30374L29.3287 6.33106L29.3255 6.36039L28.0844 16.4409L28.0814 16.4682C27.964 17.4229 27.183 18.1771 26.225 18.2617L26.2121 18.2627L10.246 19.6603C10.2348 19.6617 10.2236 19.6628 10.2123 19.6638L10.1711 19.6668L9.56561 19.7198C9.53587 19.7223 9.5051 19.7239 9.47536 19.7239C9.20731 19.7239 8.95962 19.6193 8.77495 19.4462C7.78754 19.0414 7.04441 18.134 6.89383 17.0032C6.8925 16.9933 6.89132 16.9834 6.89029 16.9734L5.73043 8.27396C5.72898 8.2642 5.72767 8.2544 5.72649 8.24455L5.46101 6.25265H3.6923C3.12615 6.25265 2.66666 5.79298 2.66666 5.22659C2.66666 4.6602 3.12615 4.20053 3.6923 4.20053L5.43018 4.20048C5.44059 4.20017 5.45104 4.20001 5.46152 4.20001ZM26.8667 7.63478L8.16666 9.27158L9.16221 16.7412L9.16265 16.7452L9.16514 16.762C9.24406 17.2731 9.7052 17.6333 10.2123 17.6054L25.8071 16.2403L26.8667 7.63478Z" fill="#1E1F2E"/>
</svg>
